<?xml version="1.0" encoding="utf-8"?>
<!-- Generator: Adobe Illustrator 16.0.0, SVG Export Plug-In . SVG Version: 6.00 Build 0)  -->
<!DOCTYPE svg PUBLIC "-//W3C//DTD SVG 1.1//EN" "http://www.w3.org/Graphics/SVG/1.1/DTD/svg11.dtd">
<svg version="1.1" id="Capa_1" xmlns="http://www.w3.org/2000/svg" xmlns:xlink="http://www.w3.org/1999/xlink" x="0px" y="0px"
	 width="256px" height="256px" viewBox="0 0 256 256" enable-background="new 0 0 256 256" xml:space="preserve">
<path fill="#F4F2ED" d="M60,0h136c33.137,0,60,26.863,60,60v136c0,33.137-26.863,60-60,60H60c-33.137,0-60-26.863-60-60V60
	C0,26.863,26.863,0,60,0z"/>
<g>
	<path display="none" fill-rule="evenodd" clip-rule="evenodd" fill="#FEFEFE" d="M-211.597,328.664
		c0-48.292,0.004-96.585-0.027-144.877c0-0.981,0.213-1.154,1.168-1.154c59.599,0.029,119.198,0.026,178.797,0.026
		c-0.757,0.325-1.595,0.534-2.255,0.997c-2.053,1.44-4.345,2.397-6.713,3.016c-2.959,0.772-5.999,1.28-9.032,1.709
		c-3.159,0.447-6.166,1.263-9.059,2.618c-3.69,1.729-6.607,4.392-9.229,7.413c-3.378,3.893-5.974,8.318-8.283,12.891
		c-3.274,6.479-6.041,13.198-8.998,19.826c-2.842,6.37-5.818,12.671-9.862,18.404c-2.089,2.962-4.443,5.694-7.306,7.889
		c-2.377,1.823-4.903,3.45-7.558,4.909c-3.187,1.752-6.505,3.149-9.862,4.474c-2.527,0.998-5.162,1.734-7.76,2.518
		c-3.057,0.922-6.116,1.84-9.146,2.845c-1.88,0.624-3.802,1.198-5.567,2.073c-2.368,1.174-4.698,2.447-6.891,3.949
		c-2.449,1.677-4.872,3.408-7.074,5.383c-2.549,2.286-5.003,4.684-7.341,7.206c-3.162,3.412-5.792,7.13-7.631,11.407
		c-1.798,4.182-3.63,8.344-6.196,12.139c-1.042,1.54-2.323,2.798-3.964,3.635c-2.463,1.257-5.235,1.298-7.877,1.833
		c-1.969,0.4-3.999,0.338-6.002,0.629c-2.881,0.419-5.719,0.792-8.427,1.941c-1.908,0.809-3.565,1.932-5.125,3.278
		C-209.873,326.549-210.406,327.903-211.597,328.664z"/>
	<path display="none" fill-rule="evenodd" clip-rule="evenodd" fill="#FEFEFE" d="M-27.596,193.89
		c0,52.595-0.004,105.188,0.027,157.783c0.001,0.985-0.219,1.152-1.17,1.151c-60.597-0.028-121.194-0.027-181.791-0.001
		c-0.915,0-1.094-0.229-1.089-1.106c0.039-7.445,0.022-14.891,0.022-22.336c0.47,0.338,0.768,0.822,1.117,1.269
		c1.476,1.888,3.31,2.98,5.821,2.834c0.804-0.047,1.532-0.445,2.504-0.436c-0.381,0.586-0.608,1.044-0.988,1.474
		c-1.359,1.542-3.139,2.633-4.431,4.24c-1.664,2.069-1.707,4.645,0.659,6.184c2.365,1.538,4.997,1.688,7.591,2.059
		c2.544,0.365,5.071-0.281,7.52-0.838c3.348-0.761,6.505-2.086,9.517-3.841c3.168-1.846,5.964-4.135,8.592-6.61
		c3.392-3.195,6.561-6.601,10.421-9.301c2.422-1.694,5.044-2.895,7.798-3.628c2.53-0.675,5.205-1.026,7.861-1.052
		c3.245-0.032,6.484-0.206,9.728,0.37c2.598,0.462,5.258,0.435,7.881,0.954c3,0.596,6.007,1.229,9.026,1.687
		c3.744,0.567,7.35,1.776,11.111,2.174c1.124,0.118,1.128,0.545,0.887,1.452c-1.452,5.442-3.942,10.432-6.61,15.347
		c-1.31,2.413-2.638,4.815-3.927,7.239c-0.513,0.964-0.301,1.346,0.818,1.521c1.027,0.161,2.062,0.023,3.096-0.008
		c2.62-0.081,4.833-1.509,7.281-2.163c0.823-0.22,1.726-0.498,2.511-0.912c2.745-1.445,5.559-2.74,8.14-4.517
		c2.281-1.569,4.25-3.335,5.706-5.696c1.987-3.224,3.341-6.758,5.049-10.119c1.584-3.118,3.388-6.021,6.526-7.822
		c0.415-0.238,0.891-0.843,1.324,0.022c1.208,2.411,2.94,4.317,5.16,5.89c2.2,1.558,4.652,2.275,7.22,2.653
		c1.343,0.197,2.706-0.045,4.087-0.338c2.429-0.515,4.519-1.613,6.495-2.984c1.544-1.07,1.494-1.327,0.017-2.394
		c-0.186-0.134-0.328-0.311-0.481-0.485c-2.2-2.521-3.182-5.588-3.892-8.751c-1.548-6.901-2.122-13.901-0.535-20.823
		c2.59-11.295,4.481-22.719,6.699-34.081c1.492-7.646,2.234-15.406,3.518-23.084c0.733-4.387,1.895-8.596,4.144-12.518
		c2.921-5.095,7.189-9.038,10.925-13.438c2.934-3.454,5.477-7.128,6.845-11.526C-28.303,197.576-28.227,195.672-27.596,193.89z"/>
	<path fill-rule="evenodd" clip-rule="evenodd" fill="#042E65" d="M219.956,55.879c-0.631,1.782-0.707,3.687-1.27,5.493
		c-1.369,4.398-3.912,8.072-6.846,11.526c-3.735,4.4-8.004,8.344-10.925,13.438c-2.249,3.922-3.411,8.131-4.144,12.518
		c-1.285,7.678-2.027,15.438-3.519,23.084c-2.218,11.362-4.108,22.786-6.699,34.081c-1.587,6.922-1.013,13.922,0.534,20.823
		c0.71,3.163,1.691,6.23,3.893,8.751c0.152,0.175,0.295,0.352,0.48,0.485c1.477,1.066,1.527,1.323-0.018,2.394
		c-1.976,1.371-4.064,2.47-6.494,2.984c-1.381,0.293-2.744,0.535-4.088,0.338c-2.567-0.378-5.02-1.096-7.219-2.653
		c-2.221-1.572-3.953-3.479-5.16-5.89c-0.434-0.865-0.909-0.261-1.324-0.022c-3.138,1.801-4.941,4.704-6.525,7.822
		c-1.709,3.361-3.063,6.896-5.049,10.119c-1.455,2.361-3.426,4.127-5.706,5.696c-2.581,1.776-5.396,3.071-8.141,4.517
		c-0.785,0.414-1.688,0.692-2.51,0.912c-2.448,0.654-4.662,2.082-7.281,2.163c-1.035,0.031-2.069,0.169-3.096,0.008
		c-1.119-0.175-1.331-0.557-0.818-1.521c1.289-2.424,2.617-4.826,3.928-7.239c2.668-4.915,5.158-9.904,6.609-15.347
		c0.242-0.907,0.237-1.334-0.887-1.452c-3.76-0.397-7.367-1.606-11.11-2.174c-3.019-0.457-6.026-1.091-9.026-1.687
		c-2.624-0.52-5.284-0.492-7.881-0.954c-3.244-0.576-6.483-0.402-9.728-0.37c-2.656,0.025-5.332,0.377-7.861,1.052
		c-2.754,0.733-5.376,1.934-7.798,3.628c-3.861,2.7-7.029,6.105-10.421,9.301c-2.628,2.476-5.423,4.765-8.592,6.61
		c-3.011,1.755-6.169,3.08-9.517,3.841c-2.448,0.557-4.976,1.203-7.52,0.838c-2.595-0.371-5.227-0.521-7.591-2.059
		c-2.366-1.539-2.323-4.114-0.659-6.184c1.292-1.607,3.071-2.698,4.431-4.24c0.379-0.43,0.607-0.888,0.988-1.474
		c-0.973-0.01-1.7,0.389-2.504,0.436c-2.511,0.146-4.345-0.946-5.821-2.834c-0.349-0.446-0.647-0.931-1.117-1.269
		c0-0.239,0-0.478,0-0.717c1.191-0.761,1.724-2.115,2.777-3.023c1.56-1.347,3.217-2.47,5.125-3.278
		c2.708-1.149,5.546-1.522,8.427-1.941c2.004-0.291,4.034-0.229,6.002-0.629c2.642-0.535,5.414-0.576,7.877-1.833
		c1.641-0.837,2.923-2.095,3.964-3.635c2.565-3.795,4.397-7.957,6.196-12.139c1.839-4.277,4.469-7.995,7.631-11.407
		c2.338-2.522,4.792-4.92,7.341-7.206c2.202-1.975,4.625-3.706,7.074-5.383c2.193-1.502,4.523-2.775,6.891-3.949
		c1.765-0.875,3.688-1.449,5.567-2.073c3.031-1.005,6.09-1.923,9.146-2.845c2.599-0.783,5.233-1.52,7.76-2.518
		c3.356-1.324,6.675-2.722,9.862-4.474c2.654-1.459,5.18-3.086,7.558-4.909c2.862-2.194,5.217-4.927,7.305-7.889
		c4.045-5.733,7.021-12.034,9.863-18.404c2.957-6.628,5.723-13.347,8.998-19.826c2.309-4.572,4.904-8.998,8.283-12.891
		c2.622-3.021,5.539-5.685,9.229-7.413c2.894-1.355,5.9-2.171,9.06-2.618c3.032-0.429,6.073-0.937,9.032-1.709
		c2.367-0.618,4.66-1.575,6.713-3.016c0.66-0.463,1.498-0.672,2.256-0.997c0.477,0,0.955,0,1.434,0
		c1.475,0.755,2.082,2.146,2.629,3.584C219.956,50.781,219.956,53.33,219.956,55.879z M167.188,164.614
		c0.813,1.332,1.078,2.475,1.158,3.666c0.17,2.54,0.316,5.081,0.48,7.622c0.021,0.311-0.021,0.721,0.314,0.846
		c0.313,0.117,0.568-0.171,0.809-0.386c3.815-3.4,6.533-7.593,8.801-12.117c3.533-7.051,5.826-14.536,7.753-22.144
		c3.479-13.735,5.339-27.769,7.64-41.722c0.67-4.072,1.234-8.189,2.711-12.062c1.717-4.502,4.877-8.015,8.294-11.312
		c3.238-3.124,6.634-6.104,8.933-10.073c1.576-2.723,2.471-5.641,2.787-8.752c0.033-0.329,0.174-0.847-0.359-0.83
		c-0.684,0.021-1.158-0.46-1.789-0.552c-2.146-0.311-3.33-1.719-3.804-3.701c-0.241-1.011-0.679-0.942-1.281-0.488
		c-1.06,0.799-2.216,1.232-3.534,1.438c-2.551,0.396-5.129-0.012-7.693,0.503c-1.992,0.4-4.055,0.355-6.025,1.088
		c-2.035,0.756-3.98,1.704-5.684,2.976c-3.808,2.842-6.73,6.501-9.178,10.57c-3.744,6.226-6.449,12.933-9.271,19.59
		c-3.156,7.446-6.193,14.954-10.598,21.794c-1.769,2.744-3.745,5.305-6.085,7.613c-2.427,2.394-5.036,4.546-7.839,6.454
		c-2.217,1.509-4.491,2.957-6.857,4.21c-2.129,1.128-4.29,2.203-6.538,3.134c-2.859,1.185-5.783,2.129-8.747,2.92
		c-2.422,0.647-4.832,1.351-7.229,2.07c-1.004,0.302-2.092,0.464-3.021,0.954c-1.926,1.017-3.978,1.738-5.901,2.781
		c-2.75,1.49-5.465,3.046-7.992,4.859c-3.064,2.198-5.992,4.586-8.752,7.19c-4.05,3.822-7.293,8.181-9.779,13.155
		c-2.308,4.619-4.482,9.305-7.276,13.679c-1.648,2.582-4.012,3.854-6.778,4.599c-1.984,0.534-4.066,0.572-6.096,0.837
		c-3.008,0.393-6.067,0.385-9.09,0.823c-2.041,0.296-4.07,0.597-5.972,1.385c-1.73,0.716-3.136,1.898-4.121,3.519
		c-0.349,0.574-0.425,1.04,0.44,1.339c1.387,0.48,2.752,0.895,4.25,0.823c1.389-0.066,2.783-0.077,4.176,0.081
		c0.59,0.066,0.72,0.296,0.695,0.83c-0.081,1.738-1.043,3.035-2.144,4.232c-1.375,1.495-3.117,2.621-4.392,4.215
		c-1.027,1.285-1.116,2.179,0.781,2.393c4.004,0.451,8.003,0.67,12.05-0.284c3.458-0.814,6.547-2.33,9.622-3.934
		c4.324-2.255,7.885-5.57,11.518-8.748c3.112-2.723,6.221-5.396,9.772-7.571c4.135-2.534,8.581-3.793,13.36-3.94
		c3.241-0.101,6.48-0.098,9.696,0.614c1.991,0.44,4.053,0.479,6.076,0.92c3.495,0.762,7.049,1.31,10.604,1.713
		c3.638,0.412,7.308,0.474,10.967,0.088c0.431-0.045,0.766-0.108,1.124-0.469c1.541-1.545,2.273-3.507,2.878-5.502
		c1.046-3.453,1.927-6.957,2.96-10.414c0.485-1.621,1.113-3.206,2.378-4.438c0.242-0.236,0.516-0.491,0.797-0.418
		c0.423,0.11,0.193,0.531,0.19,0.822c-0.034,3.066-0.198,6.123-0.522,9.176c-0.822,7.746-2.689,15.229-5.562,22.464
		c-1.938,4.887-4.316,9.564-6.756,14.214c-0.119,0.229-0.465,0.462-0.23,0.725c0.232,0.261,0.627,0.137,0.898,0.01
		c1.729-0.806,3.587-1.261,5.314-2.091c3.054-1.468,5.853-3.32,8.302-5.617c2.981-2.797,5.48-6.019,7.613-9.528
		c3.956-6.514,6.614-13.567,8.79-20.826C165.894,169.396,166.483,167.141,167.188,164.614z M182.138,164.766
		c-1.201,1.613-2.279,3.005-3.297,4.438c-2.193,3.091-4.304,6.219-5.297,9.965c-0.289,1.092-0.143,1.95,0.578,2.73
		c3.371,3.64,7.582,4.829,12.401,4.2c0.714-0.093,0.55-0.484,0.306-0.935c-0.604-1.115-1.049-2.302-1.426-3.509
		C183.714,176.223,182.726,170.65,182.138,164.766z"/>
	<path fill-rule="evenodd" clip-rule="evenodd" fill="#FEFEFE" d="M219.956,48.232c-0.547-1.438-1.154-2.829-2.629-3.584
		c0.859,0,2.117-0.338,2.477,0.086c0.443,0.521,0.137,1.678,0.15,2.561C219.96,47.607,219.956,47.92,219.956,48.232z"/>
	<path fill-rule="evenodd" clip-rule="evenodd" fill="#C3996C" d="M167.188,164.614c-0.705,2.526-1.295,4.782-1.964,7.015
		c-2.176,7.259-4.834,14.313-8.79,20.826c-2.133,3.51-4.632,6.731-7.613,9.528c-2.449,2.297-5.248,4.149-8.302,5.617
		c-1.728,0.83-3.586,1.285-5.314,2.091c-0.271,0.127-0.666,0.251-0.898-0.01c-0.234-0.263,0.111-0.495,0.23-0.725
		c2.439-4.649,4.817-9.327,6.756-14.214c2.872-7.235,4.739-14.718,5.562-22.464c0.324-3.053,0.488-6.109,0.522-9.176
		c0.003-0.291,0.232-0.712-0.19-0.822c-0.281-0.073-0.555,0.182-0.797,0.418c-1.265,1.231-1.893,2.816-2.378,4.438
		c-1.033,3.457-1.914,6.961-2.96,10.414c-0.604,1.995-1.337,3.957-2.878,5.502c-0.358,0.36-0.693,0.424-1.124,0.469
		c-3.659,0.386-7.329,0.324-10.967-0.088c-3.556-0.403-7.11-0.951-10.604-1.713c-2.023-0.44-4.084-0.479-6.076-0.92
		c-3.216-0.712-6.455-0.715-9.696-0.614c-4.779,0.147-9.225,1.406-13.36,3.94c-3.551,2.176-6.661,4.849-9.772,7.571
		c-3.633,3.178-7.194,6.493-11.518,8.748c-3.074,1.604-6.164,3.119-9.622,3.934c-4.046,0.954-8.045,0.735-12.05,0.284
		c-1.897-0.214-1.808-1.107-0.781-2.393c1.274-1.594,3.017-2.72,4.392-4.215c1.101-1.197,2.063-2.494,2.144-4.232
		c0.024-0.534-0.105-0.764-0.695-0.83c-1.393-0.158-2.787-0.147-4.176-0.081c-1.499,0.071-2.864-0.343-4.25-0.823
		c-0.865-0.299-0.789-0.765-0.44-1.339c0.985-1.62,2.391-2.803,4.121-3.519c1.902-0.788,3.931-1.089,5.972-1.385
		c3.023-0.438,6.082-0.431,9.09-0.823c2.029-0.265,4.112-0.303,6.096-0.837c2.766-0.745,5.129-2.017,6.778-4.599
		c2.794-4.374,4.968-9.06,7.276-13.679c2.486-4.975,5.729-9.333,9.779-13.155c2.76-2.604,5.688-4.992,8.752-7.19
		c2.526-1.813,5.241-3.369,7.992-4.859c1.923-1.043,3.976-1.765,5.901-2.781c0.929-0.49,2.017-0.652,3.021-0.954
		c2.396-0.72,4.806-1.423,7.229-2.07c2.964-0.791,5.887-1.735,8.747-2.92c2.248-0.931,4.409-2.006,6.538-3.134
		c2.366-1.253,4.641-2.701,6.857-4.21c2.803-1.908,5.412-4.061,7.839-6.454c2.34-2.309,4.316-4.869,6.085-7.613
		c4.404-6.84,7.441-14.348,10.598-21.794c2.822-6.657,5.527-13.364,9.271-19.59c2.447-4.069,5.37-7.729,9.178-10.57
		c1.703-1.271,3.648-2.22,5.684-2.976c1.971-0.732,4.033-0.688,6.025-1.088c2.564-0.515,5.143-0.107,7.693-0.503
		c1.318-0.205,2.475-0.639,3.534-1.438c0.603-0.454,1.04-0.522,1.281,0.488c0.474,1.982,1.657,3.391,3.804,3.701
		c0.631,0.092,1.105,0.572,1.789,0.552c0.533-0.017,0.393,0.501,0.359,0.83c-0.316,3.111-1.211,6.029-2.787,8.752
		c-2.299,3.97-5.694,6.949-8.933,10.073c-3.417,3.297-6.577,6.81-8.294,11.312c-1.477,3.872-2.041,7.989-2.711,12.062
		c-2.301,13.953-4.16,27.986-7.64,41.722c-1.927,7.607-4.22,15.093-7.753,22.144c-2.268,4.524-4.985,8.717-8.801,12.117
		c-0.24,0.215-0.496,0.503-0.809,0.386c-0.336-0.125-0.294-0.535-0.314-0.846c-0.164-2.541-0.311-5.082-0.48-7.622
		C168.267,167.089,168.001,165.946,167.188,164.614z M197.426,62.43c-0.175-0.515,0.259-1.536-0.528-1.671
		c-1.559-0.268-3.197-0.226-4.642,0.561c-2.242,1.219-3.222,3.338-3.808,5.695c-0.114,0.459-0.021,0.882,0.27,1.227
		c1,1.181,3.741,1.583,5.07,0.841C196.374,67.64,197.349,65.337,197.426,62.43z M207.794,71.062
		c0.109,0.013,0.219,0.025,0.328,0.039c0.205-0.569,0.232-1.18,0.236-1.792c0.025-2.76,0.463-5.457,1.302-8.082
		c0.409-1.279,0.915-2.527,1.368-3.793c0.08-0.226,0.145-0.535-0.101-0.645c-0.362-0.161-0.427,0.178-0.543,0.436
		c-1.432,3.178-2.845,6.369-3.497,9.813c-0.309,1.629-0.716,3.281-0.313,4.989c0.702-1.595,0.372-3.424,1.22-5.339
		C207.794,68.38,207.794,69.721,207.794,71.062z M200.799,71.054c0.491-0.661,0.685-1.154,0.821-1.7
		c0.441-1.767,1.142-3.442,1.885-5.102c1.47-3.277,3.422-6.278,5.31-9.316c0.183-0.294,0.477-0.673,0.089-0.898
		c-0.288-0.169-0.48,0.234-0.667,0.504c-2.751,3.967-5.021,8.188-6.657,12.729C201.174,68.395,200.706,69.544,200.799,71.054z
		 M203.472,71.359c0.49-0.281,0.563-0.774,0.626-1.231c0.618-4.439,2.59-8.321,4.852-12.104c0.488-0.817,1.229-1.63,0.954-3.079
		C206.831,60.264,203.827,65.271,203.472,71.359z"/>
	<path fill-rule="evenodd" clip-rule="evenodd" fill="#C3996C" d="M182.138,164.766c0.588,5.885,1.576,11.457,3.266,16.891
		c0.377,1.207,0.822,2.394,1.426,3.509c0.244,0.45,0.408,0.842-0.306,0.935c-4.819,0.629-9.03-0.561-12.401-4.2
		c-0.721-0.78-0.867-1.639-0.578-2.73c0.993-3.746,3.104-6.874,5.297-9.965C179.858,167.771,180.937,166.379,182.138,164.766z"/>
	<path fill-rule="evenodd" clip-rule="evenodd" fill="#042E65" d="M197.426,62.43c-0.077,2.907-1.052,5.21-3.638,6.652
		c-1.329,0.742-4.07,0.34-5.07-0.841c-0.291-0.345-0.384-0.768-0.27-1.227c0.586-2.357,1.565-4.477,3.808-5.695
		c1.444-0.786,3.083-0.828,4.642-0.561C197.685,60.894,197.251,61.915,197.426,62.43z"/>
	<path fill-rule="evenodd" clip-rule="evenodd" fill="#042E65" d="M207.794,71.062c0-1.341,0-2.682,0-4.373
		c-0.848,1.915-0.518,3.744-1.22,5.339c-0.402-1.708,0.005-3.36,0.313-4.989c0.652-3.444,2.065-6.636,3.497-9.813
		c0.116-0.258,0.181-0.597,0.543-0.436c0.245,0.109,0.181,0.419,0.101,0.645c-0.453,1.266-0.959,2.514-1.368,3.793
		c-0.839,2.625-1.276,5.322-1.302,8.082c-0.004,0.612-0.031,1.223-0.236,1.792C208.013,71.087,207.903,71.074,207.794,71.062z"/>
	<path fill-rule="evenodd" clip-rule="evenodd" fill="#042E65" d="M200.799,71.054c-0.093-1.51,0.375-2.659,0.78-3.783
		c1.637-4.542,3.906-8.763,6.657-12.729c0.187-0.27,0.379-0.673,0.667-0.504c0.388,0.226,0.094,0.604-0.089,0.898
		c-1.888,3.038-3.84,6.039-5.31,9.316c-0.743,1.659-1.443,3.335-1.885,5.102C201.483,69.899,201.29,70.393,200.799,71.054z"/>
	<path fill-rule="evenodd" clip-rule="evenodd" fill="#042E65" d="M203.472,71.359c0.355-6.089,3.359-11.096,6.432-16.415
		c0.275,1.449-0.466,2.262-0.954,3.079c-2.262,3.783-4.233,7.665-4.852,12.104C204.034,70.585,203.962,71.078,203.472,71.359z"/>
</g>
</svg>
