<?xml version="1.0" encoding="UTF-8"?>
<svg id="Capa_1" xmlns="http://www.w3.org/2000/svg" version="1.1" viewBox="0 0 256 256">
  <!-- Generator: Adobe Illustrator 29.5.0, SVG Export Plug-In . SVG Version: 2.1.0 Build 137)  -->
  <defs>
    <style>
      .st0, .st1 {
        fill: #f6fbf5;
      }

      .st2, .st3 {
        fill: #34ad20;
      }

      .st4 {
        fill: #242938;
      }

      .st1, .st5, .st3, .st6 {
        display: none;
      }

      .st5 {
        fill: #fefefe;
      }

      .st6 {
        fill: #33ac1f;
      }
    </style>
  </defs>
  <path class="st4" d="M60,0h136c33.14,0,60,26.86,60,60v136c0,33.14-26.86,60-60,60H60c-33.14,0-60-26.86-60-60V60C0,26.86,26.86,0,60,0Z"/>
  <path class="st5" d="M745.51-117.03v493.96h-438.64V-117.03h438.64ZM523.9-101.36c-2,.48-3.85,2.13-5.88,2.68l-67.55,33.72c-.2,22.98-.14,45.97-.12,68.95-2.05-.22-4.05-.81-6.03-1.32-31.1-8.05-62.14-16.34-93.22-24.48-.5-.13-.29.44-.34.49-.06.06-1.27.29-1.61.44-8.56,3.69-17.21,7.22-25.76,10.89l-.12,281.22.55.66,25.33,10.6c.52.17,1.07.34,1.61.44.06,0,.27.34.52.2,30.96-7.23,61.84-14.81,92.8-22.02,2.15-.5,4.31-1.11,6.51-1.32-.01,21.76-.02,43.53.04,65.29,5.07,2.43,10.2,4.81,15.24,7.3,18.74,9.26,37.36,18.93,56.24,27.91.58.28,1.4.6,2.02.75.06.01.21.33.47.15,24.42-12.12,48.91-24.07,73.34-36.17l.24-.97v-51.24s95.96,10.37,95.96,10.37l34.72-18.2.26-.71V-2.89c0-.22-.1-.34-.26-.47-.47-.4-2.82-1.52-3.6-1.94-10.26-5.61-20.84-10.68-31.12-16.26l-96.22,10.37c0-17.92.09-35.85-.12-53.76l-73.45-36.54c-.26-.18-.41.13-.47.15Z"/>
  <g>
    <path class="st6" d="M228.65-41.44c1.3,1.38,3.4,1.19,4.94,1.72,12.78,4.4,21.04,15.67,23.75,29.96v232.44c-1.09,2.2-1.34,4.93-2.18,7.36-4.47,12.96-16.18,22.34-28.69,23.21l-204.86.02c-15.5-1.4-27.27-13.44-30.49-30.07-.28-1.43.49-2.52-.72-3.63V-7.02C-6.88-25.58,1.88-35.7,18.02-40.65c.54-.17,1.23.06,1.45-.8h209.18ZM117.89,4.24c-.16-1.07.3-3.2-.16-4.06-.68-1.26-6.86-1.55-8.25-1.36-7.06.92-9.79,10.07-3.37,14.2,1.99,1.28,10.33,2.88,7.34,6.96-1.43,1.96-8.38.32-10.58.1-.16,4.08-.38,4.63,3.26,5.43,2.2.49,4.98.56,7.17,0,6.59-1.68,8.78-10.42,2.55-14.42-1.55-1-10.69-3.33-7.29-6.66,2.16-2.12,6.74.06,9.33-.19ZM137.24-.56h-14.35V3.87h8.34c.15.64-.24.74-.5,1.11-1.85,2.67-5.82,4.69-5.17,8.65.06.37.14.78.52.88.3.08,2.91-.46,3.98-.32s2.58.62,2.83,2.03c1.22,7.03-6.76,4.68-10.33,3.49l-.02,4.56c6.56,3.41,17.52,1.22,15.63-9.09-.65-3.55-3.22-4.2-5.78-5.05-.24-.08-.74.11-.48-.56.51-1.32,4.6-4.35,5.16-5.72.48-1.17.02-3.12.17-4.41ZM182.49,148.14c5.05-5.88-6.02-13.46-9.89-15.9l-.34-.73c.69-7.01,1.52-13.99,2.38-20.95.75-6.05,2.32-13.21,2.63-19.2.25-4.79-.55-6.69-3.84-9.75-12.59-11.66-42.13-14.7-58.05-14.02-13.01.55-41.21,4.94-49.53,17.14-2.39,3.51-1.08,5.25-.7,8.88,3.43,33.21,8.13,66.38,12.32,99.49,1.49,3.01,4.27,4.87,7,6.27,16.82,8.63,55.76,8.72,72.53,0,2.62-1.37,6.14-3.61,7.19-6.79,1.35-4.11,1.51-12.17,2.12-16.81.12-.91.48-1.75.6-2.66,1.02-7.78,1.77-15.61,2.85-23.38.66-1.06,3.65.3,4.7.39,2.6.23,6.14.26,8.05-1.97Z"/>
    <path class="st1" d="M19.47-41.44c-.22.85-.91.63-1.45.8C1.88-35.7-6.88-25.58-9.58-7.02v226.59c1.2,1.11.43,2.2.71,3.63,3.22,16.63,14.99,28.66,30.49,30.07l204.86-.02c12.51-.87,24.22-10.26,28.69-23.21.84-2.43,1.09-5.16,2.18-7.36v30.94H-9.89V-41.44h29.36Z"/>
    <path class="st1" d="M228.65-41.44h28.69V-9.76c-2.71-14.29-10.97-25.56-23.75-29.96-1.54-.53-3.64-.34-4.94-1.72Z"/>
    <path class="st0" d="M182.49,148.14c-1.91,2.23-5.45,2.2-8.05,1.97-1.05-.09-4.03-1.45-4.7-.39-1.08,7.77-1.83,15.6-2.85,23.38-.12.91-.48,1.75-.6,2.66-.62,4.64-.77,12.7-2.12,16.81-1.05,3.19-4.57,5.43-7.19,6.79-16.77,8.73-55.71,8.63-72.53,0-2.73-1.4-5.51-3.26-7-6.27-4.19-33.11-8.89-66.28-12.32-99.49-.37-3.63-1.69-5.37.7-8.88,8.32-12.21,36.52-16.59,49.53-17.14,15.93-.68,45.46,2.37,58.05,14.02,3.3,3.05,4.09,4.96,3.84,9.75-.31,5.99-1.88,13.15-2.63,19.2-.86,6.97-1.69,13.94-2.38,20.95l.34.73c3.87,2.44,14.93,10.02,9.89,15.9ZM115.15,72.86c-12.67.64-31.34,3.64-42.07,11.38-4.26,3.07-5.68,5.55-1.07,9.51,10.33,8.84,38.77,11.29,51.73,11.07,10.78-.18,40.42-3.49,47.7-12.53,2.42-3,1.42-4.37-1-6.65-11.43-10.74-40.72-13.51-55.29-12.78ZM171.26,98.9c-2.71,1.52-5.41,3.14-8.28,4.3-21.93,8.87-61.66,8.73-83.65.13-3.07-1.2-5.91-2.89-8.83-4.43,3.44,30.37,7.57,60.73,11.03,91.15.34,2.01,3.32,3.73,4.91,4.53,15.94,8.04,50.15,7.82,66.46,1.01,2.15-.9,6.49-2.81,6.99-5.54l5.32-42.48c-6.23-2.21-12.42-4.67-18.49-7.4-3.05-1.37-21.7-11.31-22.92-10.99-.73.19-1.2.92-2.43,1.04-5.6.55-8.33-6.87-4-10.69,2.54-2.24,5.79-1.8,7.69,1.09.87,1.32.85,2.8,1.68,4.04,12.83,6.47,25.69,13,39.17,17.71l5.34-43.47ZM177.15,141.76c-.63-.69-5.66-4.86-6.22-4.18.31,1.2-.98,6.01-.35,6.45,1.45.23,3.09.8,4.52.91,3.7.29,5.07.12,2.05-3.18Z"/>
    <path class="st1" d="M117.89,4.24c-2.59.25-7.17-1.92-9.33.19-3.4,3.33,5.74,5.66,7.29,6.66,6.23,3.99,4.04,12.74-2.55,14.42-2.19.56-4.97.48-7.17,0-3.63-.8-3.42-1.35-3.26-5.43,2.2.22,9.14,1.86,10.58-.1,2.99-4.08-5.36-5.68-7.34-6.96-6.43-4.13-3.69-13.27,3.37-14.2,1.4-.18,7.57.1,8.25,1.36.47.86,0,2.99.16,4.06Z"/>
    <path class="st1" d="M137.24-.56c-.16,1.3.31,3.25-.17,4.41-.56,1.37-4.65,4.41-5.16,5.72-.26.66.24.48.48.56,2.56.84,5.13,1.5,5.78,5.05,1.89,10.3-9.07,12.5-15.63,9.09l.02-4.56c3.57,1.19,11.55,3.54,10.33-3.49-.24-1.41-1.72-1.89-2.83-2.03s-3.68.4-3.98.32c-.39-.1-.46-.51-.52-.88-.65-3.96,3.32-5.98,5.17-8.65.26-.37.64-.46.5-1.11h-8.34V-.56h14.35Z"/>
    <path class="st2" d="M171.26,98.9l-5.34,43.47c-13.48-4.71-26.34-11.24-39.17-17.71-.83-1.24-.81-2.72-1.68-4.04-1.9-2.89-5.15-3.32-7.69-1.09-4.33,3.81-1.6,11.24,4,10.69,1.24-.12,1.7-.85,2.43-1.04,1.22-.32,19.87,9.62,22.92,10.99,6.07,2.73,12.25,5.19,18.49,7.4l-5.32,42.48c-.51,2.73-4.85,4.64-6.99,5.54-16.31,6.81-50.52,7.03-66.46-1.01-1.59-.8-4.57-2.52-4.91-4.53-3.46-30.42-7.58-60.78-11.03-91.15,2.92,1.54,5.76,3.23,8.83,4.43,21.99,8.6,61.72,8.73,83.65-.13,2.86-1.16,5.57-2.78,8.28-4.3Z"/>
    <path class="st2" d="M115.15,72.86c14.57-.73,43.86,2.03,55.29,12.78,2.42,2.28,3.42,3.64,1,6.65-7.28,9.05-36.93,12.35-47.7,12.53-12.96.22-41.4-2.23-51.73-11.07-4.62-3.95-3.19-6.43,1.07-9.51,10.73-7.74,29.4-10.75,42.07-11.38Z"/>
    <path class="st3" d="M177.15,141.76c3.02,3.3,1.66,3.47-2.05,3.18-1.43-.11-3.07-.68-4.52-.91-.63-.44.66-5.25.35-6.45.56-.68,5.59,3.49,6.22,4.18Z"/>
  </g>
</svg>