<?xml version="1.0" encoding="UTF-8"?>
<svg id="Capa_1" xmlns="http://www.w3.org/2000/svg" version="1.1" viewBox="0 0 256 256">
  <!-- Generator: Adobe Illustrator 29.5.0, SVG Export Plug-In . SVG Version: 2.1.0 Build 137)  -->
  <defs>
    <style>
      .st0 {
        fill: #4c612d;
      }

      .st1 {
        fill: #b6c99d;
      }

      .st2 {
        fill: #fcfdfc;
      }

      .st2, .st3, .st4 {
        display: none;
      }

      .st5 {
        fill: #242938;
      }

      .st3 {
        fill: #fefefe;
      }

      .st6 {
        fill: #3d4a2a;
      }

      .st7 {
        fill: #759c3e;
      }
    </style>
  </defs>
  <path class="st5" d="M60,0h136c33.14,0,60,26.86,60,60v136c0,33.14-26.86,60-60,60H60c-33.14,0-60-26.86-60-60V60C0,26.86,26.86,0,60,0Z"/>
  <g class="st4">
    <path class="st3" d="M745.51-117.03v493.96h-438.64V-117.03h438.64ZM523.9-101.36c-2,.48-3.85,2.13-5.88,2.68l-67.55,33.72c-.2,22.98-.14,45.97-.12,68.95-2.05-.22-4.05-.81-6.03-1.32-31.1-8.05-62.14-16.34-93.22-24.48-.5-.13-.29.44-.34.49-.06.06-1.27.29-1.61.44-8.56,3.69-17.21,7.22-25.76,10.89l-.12,281.22.55.66,25.33,10.6c.52.17,1.07.34,1.61.44.06,0,.27.34.52.2,30.96-7.23,61.84-14.81,92.8-22.02,2.15-.5,4.31-1.11,6.51-1.32-.01,21.76-.02,43.53.04,65.29,5.07,2.43,10.2,4.81,15.24,7.3,18.74,9.26,37.36,18.93,56.24,27.91.58.28,1.4.6,2.02.75.06.01.21.33.47.15,24.42-12.12,48.91-24.07,73.34-36.17l.24-.97v-51.24s95.96,10.37,95.96,10.37l34.72-18.2.26-.71V-2.89c0-.22-.1-.34-.26-.47-.47-.4-2.82-1.52-3.6-1.94-10.26-5.61-20.84-10.68-31.12-16.26l-96.22,10.37c0-17.92.09-35.85-.12-53.76l-73.45-36.54c-.26-.18-.41.13-.47.15Z"/>
  </g>
  <g>
    <path class="st3" d="M205.17,409.8H-48.33V-102.2H463.67V409.8h-254.5l31.77-16.13.3-48.61,55.28-22.07.51-42.36c-.22-1.22-2.14-.36-3.02-.58-17.54-4.28-35.08-8.88-52.9-11.98.02-2.85-.56-17.31.58-18.08l55.27-10.91.05-41.88,22.96-1.99v-40.92h-48.9c-.55-11.79.74-24.22,0-35.93,5.19-1.56,10.31-.65,15.51-.96,1.3-.08,2.61-1.03,2.96-1.03h14.97c.34,0,1.67-.95,2.96-1.03,3.96-.27,7.99.36,11.96-.05l.56-.91c.29-10.94-.4-22,0-32.94l20.4-2.09.56-.91.06-75.24c-3.27-2.05-19.96-6.62-20.86-9.26l-.65-39.27-112.29-55.88-112.29,55.88-.65,39.27c-.9,2.64-17.59,7.21-20.86,9.26l.06,75.24.55.92,20.41,2.08c.4,10.94-.29,22,0,32.94,1.97-.13,4.04.18,5.99,0l42.92,2.99c2.96,68.06-3.94,139.46-.05,207.14.17,2.96.91,5.75,1.05,8.7l28.8,11.85.3,48.61,31.77,16.13Z"/>
    <path class="st7" d="M128,34.13l43.91,21.77.25,15.3c.35,1.03,6.88,2.81,8.16,3.61l-.02,29.31-8.2-1.17c-.02.77.03,1.56,0,2.33-.16,4.26.11,8.57,0,12.83l-19.51-1.94c-.41,1.18.34,2.74.39,3.5.29,4.56-.21,9.4,0,14h19.12v15.94l-8.98.78-.02,16.31-21.61,4.25c-.44.3-.22,5.93-.22,7.04-.03,3.75.02,7.52,0,11.27,6.52-1.8,13.03-3.7,19.52-5.65.64-.19,1.39.08,1.16-.96.34.08,1.1-.25,1.18.22l-.2,16.5-21.62,8.6-.12,18.93-12.43,6.28h-.78V93.99c2.92,0,8.57,1.34,11.71,1.94.53.1,1.18.53,1.87.66,3.78.75,7.57,1.62,11.4,2.06l-.39-34.6c-7.94-3.79-16.36-6.87-24.59-10.11v-19.83Z"/>
    <path class="st0" d="M128,34.13v19.83l-23.93,9.42-.66.69v34.6c3.8-.67,7.64-1.29,11.42-2.05.67-.13,1.25-.64,1.46-.68,3.11-.61,8.81-1.94,11.71-1.94v139.18h-.78l-12.43-6.28-.12-18.93-11.26-4.62c-.06-1.15-.35-2.23-.41-3.39-1.52-26.36,1.18-54.18.02-80.69.71-.85.32-2.07.39-3.11-5.5.75-11.06,1.03-16.59,1.57-.63.06-.54.38-.58.38-.77.07-1.57-.05-2.34,0-.11-4.26.16-8.57,0-12.83-.03-.78.02-1.56,0-2.33l-8.2,1.17-.02-29.31c1.28-.8,7.81-2.58,8.16-3.61l.25-15.3,43.91-21.77Z"/>
    <path class="st1" d="M161.95,182.63c.22,1.04-.52.77-1.16.96-6.48,1.95-13,3.85-19.52,5.65.02-3.75-.03-7.52,0-11.27,6.97,1.21,13.83,3,20.68,4.67Z"/>
    <path class="st6" d="M172.1,118.1l-.22.36c-1.55.16-3.13-.08-4.68.02-.51.03-1.02.4-1.16.4h-5.85c-.14,0-.65.37-1.16.4-2.03.12-4.03-.23-6.06.37-.05-.76-.8-2.32-.39-3.5l19.51,1.94Z"/>
    <path class="st6" d="M86.24,118.1s-.05-.32.58-.38c5.53-.54,11.09-.81,16.59-1.57-.06,1.04.32,2.26-.39,3.11l-16.78-1.17Z"/>
    <path class="st6" d="M180.3,104.1l-.22.35-7.98.81c.03-.78-.02-1.56,0-2.33l8.2,1.17Z"/>
    <path class="st6" d="M75.7,104.1l8.2-1.17c.02.77-.03,1.56,0,2.33l-7.98-.81-.22-.36Z"/>
    <path class="st2" d="M144.5,52v35.93c-4.42-.77-12.38-2.5-16.5-2.5s-12.11,1.72-16.5,2.5v-35.93c4.19-.14,12.54-4.82,16.27-4.96,3.94-.15,12.32,4.54,16.73,4.96Z"/>
    <path class="st0" d="M152.59,64.06l.39,34.6c-3.84-.44-7.62-1.3-11.4-2.06-.69-.14-1.33-.56-1.87-.66v-27.99l12.88-3.89Z"/>
    <path class="st6" d="M128,53.95c8.22,3.24,16.65,6.32,24.59,10.11l-12.88,3.89c-3.13-.33-9.07-3.98-11.87-3.87-2.65.11-8.58,3.76-11.55,3.87s-9.64-3.4-12.88-3.89l.66-.69,23.93-9.42Z"/>
    <path class="st7" d="M116.29,67.95v27.99c-.21.04-.78.54-1.46.68-3.78.76-7.62,1.38-11.42,2.05v-34.6c3.24.49,9.99,4,12.88,3.89Z"/>
  </g>
</svg>