<?xml version="1.0" encoding="UTF-8"?>
<svg id="Capa_1" xmlns="http://www.w3.org/2000/svg" version="1.1" viewBox="0 0 256 256">
  <!-- Generator: Adobe Illustrator 29.5.0, SVG Export Plug-In . SVG Version: 2.1.0 Build 137)  -->
  <defs>
    <style>
      .st0 {
        fill: #242938;
      }

      .st1 {
        display: none;
        fill: #fefefe;
      }

      .st2 {
        fill: #e15444;
      }

      .st3 {
        fill: #7b1d13;
      }
    </style>
  </defs>
  <path class="st0" d="M60,0h136c33.14,0,60,26.86,60,60v136c0,33.14-26.86,60-60,60H60c-33.14,0-60-26.86-60-60V60C0,26.86,26.86,0,60,0Z"/>
  <g>
    <path class="st1" d="M745.51-117.03v493.96h-438.64V-117.03h438.64ZM523.9-101.36c-2,.48-3.85,2.13-5.88,2.68l-67.55,33.72c-.2,22.98-.14,45.97-.12,68.95-2.05-.22-4.05-.81-6.03-1.32-31.1-8.05-62.14-16.34-93.22-24.48-.5-.13-.29.44-.34.49-.06.06-1.27.29-1.61.44-8.56,3.69-17.21,7.22-25.76,10.89l-.12,281.22.55.66,25.33,10.6c.52.17,1.07.34,1.61.44.06,0,.27.34.52.2,30.96-7.23,61.84-14.81,92.8-22.02,2.15-.5,4.31-1.11,6.51-1.32-.01,21.76-.02,43.53.04,65.29,5.07,2.43,10.2,4.81,15.24,7.3,18.74,9.26,37.36,18.93,56.24,27.91.58.28,1.4.6,2.02.75.06.01.21.33.47.15,24.42-12.12,48.91-24.07,73.34-36.17l.24-.97v-51.24s95.96,10.37,95.96,10.37l34.72-18.2.26-.71V-2.89c0-.22-.1-.34-.26-.47-.47-.4-2.82-1.52-3.6-1.94-10.26-5.61-20.84-10.68-31.12-16.26l-96.22,10.37c0-17.92.09-35.85-.12-53.76l-73.45-36.54c-.26-.18-.41.13-.47.15Z"/>
    <path class="st3" d="M130.23,37.84l.1,45.21,27.13,7.38c0-6.05,0-12.1,0-18.14l35.39-3.96v116.42l-35.3-3.96c0-5.99,0-11.98,0-17.96l-27.13,6.55-.1,45.12c-.23-.06-.53-.18-.74-.29-6.94-3.43-13.79-7.12-20.69-10.66-1.86-.95-3.74-1.86-5.61-2.79-.02-8.31-.02-16.63-.01-24.95,0-4.36,0-8.72,0-13.08l27.13-4.8v-9.2s26.93-2.95,26.93-2.95l.18-.09.04-38.6-27.14-2.86c0-3.16,0-6.33,0-9.49l-27.14-4.28-.09-.28c0-4.04,0-8.08,0-12.12,0-8.78-.03-17.56.04-26.34l24.84-12.88c.75-.21,1.43-.84,2.16-1.02Z"/>
    <path class="st3" d="M130.4,104.25c.01,14.83.02,29.66,0,44.49l-26.92-2.95-.18-.09-.04-38.6,27.14-2.85Z"/>
    <path class="st2" d="M103.18,78.09c0,4.04,0,8.08,0,12.12l.09.28,27.14,4.28c0,3.16,0,6.33,0,9.49l-27.14,2.85.04,38.6.18.09,26.92,2.95v9.2s-27.14,4.8-27.14,4.8c0,4.36,0,8.72,0,13.08-.81.08-1.61.31-2.4.51-11.39,2.75-22.74,5.65-34.13,8.41-.09.05-.17-.07-.19-.08v-116.24s-.06-.24.13-.19c11.43,3.11,22.85,6.28,34.29,9.35.73.2,1.47.42,2.22.51Z"/>
    <path class="st2" d="M130.4,104.25l27.14,2.86-.04,38.6-.18.09-26.92,2.95c.02-14.83.01-29.66,0-44.49Z"/>
    <path class="st2" d="M192.84,184.75v-116.42c3.78,2.13,7.67,4.07,11.44,6.21.29.16,1.15.59,1.32.74.06.05.09.1.09.18v102.06s-.09.27-.09.27l-12.77,6.96Z"/>
    <path class="st2" d="M157.45,72.29c0,6.05,0,12.1,0,18.14l-27.13-7.38-.1-45.21s.08-.13.17-.06l27.01,13.96c.08,6.85.04,13.7.04,20.54Z"/>
    <path class="st3" d="M66.55,68.42v116.24c-.2-.04-.4-.1-.59-.17l-9.31-4.05-.2-.25.04-107.44c3.14-1.4,6.33-2.75,9.47-4.16.13-.06.57-.14.59-.17Z"/>
    <path class="st2" d="M130.31,214.5l.1-45.12,27.13-6.55c0,5.99,0,11.98,0,17.96v19.58s-.08.37-.08.37c-8.99,4.62-17.99,9.19-26.97,13.82-.1.07-.15-.05-.17-.06Z"/>
  </g>
</svg>