<?xml version="1.0" encoding="UTF-8"?>
<svg id="Capa_1" xmlns="http://www.w3.org/2000/svg" version="1.1" viewBox="0 0 256 256">
  <!-- Generator: Adobe Illustrator 29.5.0, SVG Export Plug-In . SVG Version: 2.1.0 Build 137)  -->
  <defs>
    <style>
      .st0 {
        fill: #9d5025;
      }

      .st1 {
        fill: #242938;
      }

      .st2 {
        fill: #f58536;
      }

      .st3 {
        fill: #fefefe;
      }

      .st3, .st4 {
        display: none;
      }

      .st4 {
        fill: #fefdfd;
      }
    </style>
  </defs>
  <path class="st1" d="M60,0h136c33.14,0,60,26.86,60,60v136c0,33.14-26.86,60-60,60H60c-33.14,0-60-26.86-60-60V60C0,26.86,26.86,0,60,0Z"/>
  <path class="st3" d="M745.51-117.03v493.96h-438.64V-117.03h438.64ZM523.9-101.36c-2,.48-3.85,2.13-5.88,2.68l-67.55,33.72c-.2,22.98-.14,45.97-.12,68.95-2.05-.22-4.05-.81-6.03-1.32-31.1-8.05-62.14-16.34-93.22-24.48-.5-.13-.29.44-.34.49-.06.06-1.27.29-1.61.44-8.56,3.69-17.21,7.22-25.76,10.89l-.12,281.22.55.66,25.33,10.6c.52.17,1.07.34,1.61.44.06,0,.27.34.52.2,30.96-7.23,61.84-14.81,92.8-22.02,2.15-.5,4.31-1.11,6.51-1.32-.01,21.76-.02,43.53.04,65.29,5.07,2.43,10.2,4.81,15.24,7.3,18.74,9.26,37.36,18.93,56.24,27.91.58.28,1.4.6,2.02.75.06.01.21.33.47.15,24.42-12.12,48.91-24.07,73.34-36.17l.24-.97v-51.24s95.96,10.37,95.96,10.37l34.72-18.2.26-.71V-2.89c0-.22-.1-.34-.26-.47-.47-.4-2.82-1.52-3.6-1.94-10.26-5.61-20.84-10.68-31.12-16.26l-96.22,10.37c0-17.92.09-35.85-.12-53.76l-73.45-36.54c-.26-.18-.41.13-.47.15Z"/>
  <g>
    <path class="st4" d="M130.86,9h101.5v247H28.36V93l58.6,7.11.27,133.23,1.44,1.56,41.19,20.1c5.28-2.43,41.85-19.38,42.63-21.66l.16-116.34c7.83-.24,17.16-2,24.38-2h15.92c2.67,0,7.75-.9,11.44-1,2.32-.06,4.66.05,6.97,0l.04-34.35c-.19-.81-11.29-4.53-12.98-4.66-6.26-.48-12.95,2.74-18.58,3.63-8.89,1.4-18.28,1.87-27.2,3.37l-.16-51.84-41.63-21.16Z"/>
    <path class="st0" d="M131.62,36.86l.84,2.71-.06,193.3-32.52-16.08-1.13-1.25-.21-106.59-46.26-5.69v-26.4c3.02-1.02,7.17-4.55,10.21-4.8l.73,28.45,56.61,7.55v-22c-6.58-2.59-14.17-4.31-21.21-6l.13-27.07,32.86-16.13Z"/>
    <path class="st2" d="M133.19,36.06l32.86,16.93.13,41.47c-7.04,1.21-14.06,3.3-21.21,4v24c7.05-.16,14.16.22,21.21,0l-.13,93.08c-.62,1.82-29.49,15.39-33.65,17.33l.06-193.3-.84-2.71v-.8h1.57Z"/>
    <path class="st4" d="M128.87,9v1l-41.63,20.16-.16,33.84c-7.96-1.89-40.39-10.44-45.78-10-3.85.32-9.11,4.72-12.94,6V9h100.51Z"/>
    <path class="st0" d="M202.31,88.87l-.04,29.08,4.75,2.12c-2.92.08-6.93.8-9.03.8h-12.57c-5.7,0-13.06,1.41-19.24,1.6-7.05.22-14.16-.16-21.21,0v-24c7.15-.7,14.17-2.79,21.21-4s14.45-1.58,21.47-2.7c4.44-.71,9.72-3.28,14.66-2.9Z"/>
    <path class="st2" d="M202.31,88.87c1.34.1,10.09,3.08,10.25,3.73l-.03,27.48c-1.83.04-3.68-.06-5.5,0l-4.75-2.12.04-29.08Z"/>
    <path class="st2" d="M98.63,80.07c7.04,1.69,14.63,3.41,21.21,6v22l-56.61-7.55-.73-28.45c4.25-.36,29.84,6.49,36.13,8Z"/>
  </g>
</svg>