<?xml version="1.0" encoding="UTF-8"?>
<svg id="Capa_1" xmlns="http://www.w3.org/2000/svg" version="1.1" viewBox="0 0 256 256">
  <!-- Generator: Adobe Illustrator 29.5.0, SVG Export Plug-In . SVG Version: 2.1.0 Build 137)  -->
  <defs>
    <style>
      .st0 {
        fill: #9d5025;
      }

      .st1 {
        fill: #f58436;
      }

      .st2 {
        fill: #242938;
      }

      .st3 {
        display: none;
        fill: #fefefe;
      }
    </style>
  </defs>
  <path class="st2" d="M60,0h136c33.14,0,60,26.86,60,60v136c0,33.14-26.86,60-60,60H60c-33.14,0-60-26.86-60-60V60C0,26.86,26.86,0,60,0Z"/>
  <g>
    <path class="st3" d="M216.26,36.06v187.6H39.74V36.06h176.53ZM128.08,44.18c-.54-.03-3.32,1.45-4.02,1.81-.21.11-.22.33-.43.43-2.96,1.53-5.93,3.04-8.9,4.55-.06,3.6-.02,7.2-.03,10.8-.97-.25-2.08-.59-3-.97-2.38-.97-4.94-1.94-7.42-2.9-.41-.16-.4-.53-1.25-.53s-.68.36-1.06.55c-3.07,1.6-6.15,3.16-9.24,4.72-.06,2.58-.02,5.17-.03,7.75-1.27-.3-2.59-.59-3.83-.99-.23-.07-.23-.31-.37-.35-1.62-.51-3.33-.83-4.94-1.37-2.83,1.24-5.39,2.9-8.21,4.23-.16,1.91-.07,3.84-.08,5.75l-7.45-1.69-6.5,3.4-.27.4.03,100.37c2.23,1.1,4.36,2.5,6.74,3.41l7.45-1.69c0,1.96-.03,3.93.03,5.89,1.15.56,2.36,1.06,3.48,1.67.21.11.22.33.43.43.83.43,3.65,1.95,4.36,1.98.77.03,2.26-.51,3.08-.72,1.45-.38,3.36-.83,4.74-1.32.21-.07.69-.72,1.32-.49,0,2.53-.08,5.08.08,7.61.72.49,1.58.76,2.33,1.19,1.84,1.05,3.88,2.26,5.76,3.26.43.23,1.78.95,2.16.97.52.03,2.46-.79,3.08-1.03,2.46-.97,5.33-2.06,7.72-3.18.26-.12.59-.15.88-.18.01,3.55-.08,7.11.08,10.66.48.38,1.14.54,1.65.85,1.85,1.12,3.96,2.05,5.76,3.26l5.88,3c.39-.03.48-.43.72-.55,19.81-10.43,39.53-20.94,59.24-31.46,1.84-.98,3.66-1.81,5.42-2.88.42-.25,1-.44,1.45-.66l-.05-100.62c-2.71-1.6-5.55-2.86-8.33-4.35-18.14-9.72-36.32-19.71-54.59-29.19-.63-.33-3.4-1.79-3.85-1.81Z"/>
    <path class="st1" d="M128.08,44.18c.45.02,3.22,1.49,3.85,1.81,18.27,9.48,36.45,19.47,54.59,29.19,2.78,1.49,5.62,2.75,8.33,4.35l.05,100.62c-.45.22-1.03.4-1.45.66-1.76,1.06-3.58,1.89-5.42,2.88-19.7,10.53-39.43,21.04-59.24,31.46-.24.13-.33.52-.72.55V44.18Z"/>
    <path class="st0" d="M128.08,44.18v171.53l-5.88-3c-1.8-1.2-3.9-2.13-5.76-3.26-.51-.31-1.17-.47-1.65-.85-.16-3.55-.07-7.11-.08-10.66-.13-45.38-.1-90.79,0-136.17,0-3.6-.03-7.2.03-10.8,2.97-1.51,5.94-3.02,8.9-4.55.21-.11.22-.32.43-.43.7-.36,3.48-1.84,4.02-1.81Z"/>
    <path class="st1" d="M103.04,57.38c.85,0,.84.37,1.25.53,2.48.96,5.04,1.93,7.42,2.9.92.38,2.03.72,3,.97-.1,45.38-.13,90.79,0,136.17-.29.03-.62.06-.88.18-2.39,1.12-5.25,2.21-7.72,3.18-.62.25-2.56,1.06-3.08,1.03V57.38Z"/>
    <path class="st0" d="M103.04,57.38v144.97c-.38-.02-1.73-.74-2.16-.97-1.87-.99-3.92-2.21-5.76-3.26-.75-.43-1.61-.69-2.33-1.19-.16-2.53-.07-5.08-.08-7.61-.15-39.63-.11-79.29,0-118.92,0-2.58-.03-5.17.03-7.75,3.08-1.56,6.17-3.12,9.24-4.72.38-.2.21-.55,1.06-.55Z"/>
    <path class="st1" d="M83.57,67.7c1.62.54,3.32.86,4.94,1.37.14.04.14.28.37.35,1.24.4,2.56.69,3.83.99-.11,39.63-.15,79.29,0,118.92-.62-.23-1.11.42-1.32.49-1.38.49-3.28.94-4.74,1.32-.83.22-2.31.76-3.08.72v-124.16Z"/>
    <path class="st0" d="M83.57,67.7v124.16c-.7-.03-3.53-1.55-4.36-1.98-.21-.11-.22-.32-.43-.43-1.12-.61-2.33-1.11-3.48-1.67-.06-1.96-.02-3.93-.03-5.89-.15-34.72-.21-69.48,0-104.2.01-1.91-.08-3.84.08-5.75,2.82-1.33,5.38-2.99,8.21-4.23Z"/>
    <path class="st1" d="M75.28,77.68c-.21,34.72-.15,69.48,0,104.2l-7.45,1.69v-107.58l7.45,1.69Z"/>
    <path class="st0" d="M67.83,183.57c-2.38-.91-4.51-2.31-6.74-3.41l-.03-100.37.27-.4,6.5-3.4v107.58Z"/>
  </g>
</svg>