<?xml version="1.0" encoding="UTF-8"?>
<svg id="Capa_1" xmlns="http://www.w3.org/2000/svg" version="1.1" viewBox="0 0 256 256">
  <!-- Generator: Adobe Illustrator 29.5.0, SVG Export Plug-In . SVG Version: 2.1.0 Build 137)  -->
  <defs>
    <style>
      .st0 {
        fill: #0069ff;
      }

      .st1 {
        fill: #242938;
      }

      .st2 {
        fill: #fff;
      }

      .st2, .st3 {
        display: none;
      }

      .st3 {
        fill: #feffff;
      }
    </style>
  </defs>
  <path class="st1" d="M60,0h136c33.14,0,60,26.86,60,60v136c0,33.14-26.86,60-60,60H60c-33.14,0-60-26.86-60-60V60C0,26.86,26.86,0,60,0Z"/>
  <g>
    <path class="st0" d="M134.21,199.83h-2.41v-29.89h-29.73v22.94h-22.94v-22.94h-19.17v-19.32h19.17v19.17h22.94v-29.74h29.66s.23.21.23.23v29.51c15.28.05,29.93-7.75,38.61-20.18,16.53-23.66,8.33-58.31-18.33-70.22-30.54-13.65-65.06,6.25-67.67,39.61-.09,1.12.05,2.28-.15,3.4-9.91,0-19.82,0-29.73,0-.5-32.13,20.59-61.65,50.48-72.61,48.12-17.64,99.6,14.6,103.61,65.74,3.48,44.29-29.76,82.58-74.19,84.15l-.37.16Z"/>
    <path class="st2" d="M54.67,122.39c9.91,0,19.82,0,29.73,0,.21-1.12.06-2.27.15-3.4,2.61-33.35,37.12-53.25,67.67-39.61,26.66,11.91,34.86,46.56,18.33,70.22-8.68,12.43-23.33,20.23-38.61,20.18v-29.51s-.21-.23-.23-.23h-29.66v29.74h-22.94v-19.17h-19.17v19.32h19.17v22.94h22.94v-22.94h29.73v29.89H54.37v-77.44h.3Z"/>
    <path class="st3" d="M54.37,122.39V44.95h154.7v154.88h-74.86l.37-.16c44.43-1.57,77.67-39.86,74.19-84.15-4.01-51.14-55.5-83.38-103.61-65.74-29.89,10.96-50.98,40.48-50.48,72.61h-.3Z"/>
  </g>
</svg>