<?xml version="1.0" encoding="UTF-8"?>
<svg id="Capa_1" xmlns="http://www.w3.org/2000/svg" version="1.1" viewBox="0 0 256 256">
  <!-- Generator: Adobe Illustrator 29.5.0, SVG Export Plug-In . SVG Version: 2.1.0 Build 137)  -->
  <defs>
    <style>
      .st0 {
        fill: #fcfdfc;
      }

      .st0, .st1, .st2 {
        display: none;
      }

      .st3 {
        fill: #242938;
      }

      .st1 {
        fill: #fefefe;
      }

      .st4 {
        fill: #6848c7;
      }
    </style>
  </defs>
  <path class="st3" d="M60,0h136c33.14,0,60,26.86,60,60v136c0,33.14-26.86,60-60,60H60c-33.14,0-60-26.86-60-60V60C0,26.86,26.86,0,60,0Z"/>
  <g class="st2">
    <path class="st1" d="M745.51-117.03v493.96h-438.64V-117.03h438.64ZM523.9-101.36c-2,.48-3.85,2.13-5.88,2.68l-67.55,33.72c-.2,22.98-.14,45.97-.12,68.95-2.05-.22-4.05-.81-6.03-1.32-31.1-8.05-62.14-16.34-93.22-24.48-.5-.13-.29.44-.34.49-.06.06-1.27.29-1.61.44-8.56,3.69-17.21,7.22-25.76,10.89l-.12,281.22.55.66,25.33,10.6c.52.17,1.07.34,1.61.44.06,0,.27.34.52.2,30.96-7.23,61.84-14.81,92.8-22.02,2.15-.5,4.31-1.11,6.51-1.32-.01,21.76-.02,43.53.04,65.29,5.07,2.43,10.2,4.81,15.24,7.3,18.74,9.26,37.36,18.93,56.24,27.91.58.28,1.4.6,2.02.75.06.01.21.33.47.15,24.42-12.12,48.91-24.07,73.34-36.17l.24-.97v-51.24s95.96,10.37,95.96,10.37l34.72-18.2.26-.71V-2.89c0-.22-.1-.34-.26-.47-.47-.4-2.82-1.52-3.6-1.94-10.26-5.61-20.84-10.68-31.12-16.26l-96.22,10.37c0-17.92.09-35.85-.12-53.76l-73.45-36.54c-.26-.18-.41.13-.47.15Z"/>
  </g>
  <g class="st2">
    <path class="st1" d="M205.17,409.8H-48.33V-102.2H463.67V409.8h-254.5l31.77-16.13.3-48.61,55.28-22.07.51-42.36c-.22-1.22-2.14-.36-3.02-.58-17.54-4.28-35.08-8.88-52.9-11.98.02-2.85-.56-17.31.58-18.08l55.27-10.91.05-41.88,22.96-1.99v-40.92h-48.9c-.55-11.79.74-24.22,0-35.93,5.19-1.56,10.31-.65,15.51-.96,1.3-.08,2.61-1.03,2.96-1.03h14.97c.34,0,1.67-.95,2.96-1.03,3.96-.27,7.99.36,11.96-.05l.56-.91c.29-10.94-.4-22,0-32.94l20.4-2.09.56-.91.06-75.24c-3.27-2.05-19.96-6.62-20.86-9.26l-.65-39.27-112.29-55.88-112.29,55.88-.65,39.27c-.9,2.64-17.59,7.21-20.86,9.26l.06,75.24.55.92,20.41,2.08c.4,10.94-.29,22,0,32.94,1.97-.13,4.04.18,5.99,0l42.92,2.99c2.96,68.06-3.94,139.46-.05,207.14.17,2.96.91,5.75,1.05,8.7l28.8,11.85.3,48.61,31.77,16.13Z"/>
    <path class="st0" d="M144.5,52v35.93c-4.42-.77-12.38-2.5-16.5-2.5s-12.11,1.72-16.5,2.5v-35.93c4.19-.14,12.54-4.82,16.27-4.96,3.94-.15,12.32,4.54,16.73,4.96Z"/>
  </g>
  <g>
    <path class="st1" d="M422.45-171.51V340.49H-89.55V-171.51H422.45ZM98.08,30.1V-46.26L20.23-87.67V72.01h260.49c-.08-1.26-1.42-1.63-2.3-2.19-22.08-14.01-46.08-25.48-68.06-39.73h-112.28ZM311.66,60.04V-46.26l-83.84-41.42V12.63l83.84,47.41ZM311.66,95.97H51.17c.08,1.26,1.42,1.63,2.3,2.19,22.08,14.01,46.08,25.48,68.06,39.73h112.28v76.35l77.85,41.42V95.97ZM104.07,255.66v-100.3L20.23,107.94v106.29l83.84,41.42Z"/>
    <path class="st4" d="M94.84,104.81h54.86c10.74,6.13,22.47,11.06,33.25,17.09.43.24,1.08.4,1.12.94H56.81V54.14l38.03,17.82v32.85Z"/>
    <path class="st4" d="M199.19,133.15v68.7l-38.03-17.82v-32.85h-54.86c-10.74-6.13-22.47-11.06-33.25-17.09-.43-.24-1.08-.4-1.12-.94h127.27Z"/>
    <polygon class="st4" points="199.19 117.69 158.23 97.3 158.23 54.14 199.19 71.96 199.19 117.69"/>
    <polygon class="st4" points="97.77 201.86 56.81 184.04 56.81 138.31 97.77 158.7 97.77 201.86"/>
  </g>
</svg>