<?xml version="1.0" encoding="UTF-8"?>
<svg id="Capa_1" xmlns="http://www.w3.org/2000/svg" version="1.1" viewBox="0 0 256 256">
  <!-- Generator: Adobe Illustrator 29.5.0, SVG Export Plug-In . SVG Version: 2.1.0 Build 137)  -->
  <defs>
    <style>
      .st0 {
        fill: #ee0105;
      }

      .st1 {
        fill: #242938;
      }

      .st2 {
        display: none;
        fill: #fff;
      }
    </style>
  </defs>
  <path class="st1" d="M60,0h136c33.14,0,60,26.86,60,60v136c0,33.14-26.86,60-60,60H60c-33.14,0-60-26.86-60-60V60C0,26.86,26.86,0,60,0Z"/>
  <g>
    <path class="st2" d="M2069.6-957.47V1202.53H-1770.4V-957.47h3840ZM-485.48-878.95c-952.55,40.01-942.77,1577.03-.68,1614.01l1207.45-.12c940.33-46.86,941.48-1580.4-13.88-1614.58l-1192.89.68ZM1481.42,811.32c-45.87,6.65-28.02,79.14,17.87,59.91,32.96-13.81,18.81-65.23-17.87-59.91ZM-383.13,1020.7h54.97c14.12,0,46.87-20.3,57.03-30.92,56.81-59.39,20.99-165.87-60.95-172.97-81.98-7.11-177.88,2.45-262.02.15-5.04-.14-36.9-5.9-36.9.92v342.68h61.97v-287.73h232.88c7.26,0,22.38,11,26.98,16.99,15.63,20.35,12.3,52.1-9.32,66.6-2.14,1.43-16.43,8.33-17.66,8.33h-186.9c65.85,66.24,133.39,131.06,200.9,195.82h78.96l-139.93-139.87ZM644.34,1104.62h-278.85c-4.6,0-21.9-6.54-27.04-8.94-87.4-40.83-74.82-210.8,29.28-222.6l249.21-.21c3.73-7.18,36.87-54.58,33.39-57.97-38.97.4-78.03-.52-117.03-.11-53.44.58-124.34-2.79-175.57,2.34-178.37,17.86-180.38,324.01,1.79,343.41l251.5.12c2.76-7.07,36.46-53.02,33.32-56.03ZM1417.94,1104.62h-276.86c-5.37,0-25.95-7.41-31.64-10.34-27.24-14.04-48.45-47.18-51.32-77.58h294.85c9.54-16.13,25.19-34.31,33.12-50.82,1.17-2.43,2.55-4.04,1.87-7.13h-329.83c6.22-45.15,42.65-82.89,88.88-85.99l243.63-.24,35.29-57.62-268.93-.09c-202.13.5-218.04,318.82-21.98,345.83l249.53-.03c3.49-6.61,36.6-52.91,33.39-55.99ZM-1089.21,817.44c-178.84,29.04-176.9,317.94,3.48,343.1,91.54-5.95,193.46,8.08,283.79,0,181.88-16.27,181.9-327.35,0-343.62-91.24-8.16-194.77,5.58-287.26.52ZM250.54,1160.57L44.31,832.22c-13.9-21.68-45.05-20.38-60.49-1.2l-205.03,329.56h66.97l60.98-96.9,132.6-1.33,35.3-57.63H-55.3l70.94-109.89,167.94,265.75h66.97ZM752.28,816.89h-55.97v343.68h262.86l34.98-55.95h-241.87v-287.73Z"/>
    <path class="st0" d="M86.07,39.63l84.55-.05c67.71,2.75,67.63,125.93.98,129.7h-85.58c-66.77-2.96-67.47-126.43.05-129.64ZM85.65,60.81c-42,2.85-41.83,84.43-.05,87.28h85.87c42.09-2.75,42.05-85.03-.43-87.33l-85.4.05Z"/>
    <path class="st0" d="M43.28,175.9c6.56.41,13.89-.7,20.36-.04,12.89,1.31,12.89,26.3,0,27.6-6.4.65-13.63-.48-20.11,0-12.79-2.02-12.92-25.23-.25-27.56ZM43.99,180.39c-8.3,1.07-8.19,17.77.24,18.58,6.07-.47,12.86.61,18.85,0,8.42-.88,8.46-17.85-.13-18.62-6.03.53-13.03-.71-18.95.05Z"/>
    <path class="st0" d="M220.98,198.96c.23.25-2.12,3.97-2.37,4.5h-17.69c-13.9-2.17-12.77-27.74,1.56-27.78h19.06s-2.5,4.64-2.5,4.64l-17.27.02c-3.28.25-5.86,3.28-6.3,6.91h23.38c.05.25-.05.38-.13.57-.56,1.33-1.67,2.79-2.35,4.08h-20.9c.2,2.44,1.71,5.1,3.64,6.23.4.24,1.86.83,2.24.83h19.62Z"/>
    <path class="st0" d="M93.33,192.22l9.92,11.24h-5.6c-4.78-5.2-9.57-10.41-14.24-15.73h13.25c.09,0,1.1-.55,1.25-.67,1.53-1.16,1.77-3.71.66-5.35-.33-.48-1.4-1.36-1.91-1.36h-16.51v23.11h-4.39v-27.53c0-.55,2.26-.08,2.62-.07,5.96.18,12.76-.58,18.57-.01,5.81.57,8.35,9.12,4.32,13.89-.72.85-3.04,2.48-4.04,2.48h-3.9Z"/>
    <path class="st0" d="M166.15,198.96c.22.24-2.17,3.93-2.36,4.5h-17.83c-12.91-1.57-12.77-26.16-.13-27.59,3.63-.41,8.66-.14,12.44-.19,2.76-.03,5.53.04,8.29,0,.25.27-2.1,4.08-2.37,4.66l-17.66.02c-7.38.95-8.27,14.6-2.08,17.88.36.19,1.59.72,1.92.72h19.76Z"/>
    <path class="st0" d="M138.24,203.46h-4.75l-11.9-21.35-5.03,8.83h9.21l-2.5,4.63-9.4.11-4.32,7.78h-4.75l14.53-26.47c1.09-1.54,3.3-1.64,4.29.1l14.62,26.38Z"/>
    <polygon class="st0" points="173.8 175.85 173.8 198.96 190.95 198.96 188.47 203.46 169.84 203.46 169.84 175.85 173.8 175.85"/>
    <path class="st0" d="M225.48,175.4c2.6-.43,3.6,3.7,1.27,4.81-3.25,1.54-4.52-4.28-1.27-4.81ZM227.03,176.39c-1.8-1.94-4.2,1.52-2.29,3.16s3.78-1.54,2.29-3.16Z"/>
    <path class="st2" d="M-491.48-615.2l1204.87-.67c599.29,28.69,599.87,1052.96,6.01,1087.17H-492.15c-589.54-35.51-591.9-1051.06.67-1086.5Z"/>
    <path class="st2" d="M-1079.21,873.39c83.56-9.52,182.24,6.03,267.38-.62,121.2,9.6,120.72,220.91,1.89,231.83-84.47,7.76-180.24-5.8-265.9.1-118.98-10.12-120.47-217.97-3.37-231.31Z"/>
    <path class="st2" d="M1503.22,823.56c21.05,20.1-5.45,59.66-32.32,39.3s6.95-63.51,32.32-39.3ZM1473.91,824.88v35.97h5.99c1.42-1.34-4.28-27.38,8.48-11.47,2.09,2.6,6.63,15.96,11.51,11.46,2.24-2.07-8.85-14.78-7.98-15.93,1.26-1.68,8.82.13,8.2-11.05-.68-12.3-17.19-8.5-26.19-8.98Z"/>
    <path class="st0" d="M224.95,176.49c.64.04,1.81-.27,1.86.72.04.9-.49.75-.58.89-.06.09.72,1.11.57,1.28-.35.36-.67-.71-.82-.92-.9-1.28-.5.81-.6.92h-.42v-2.89ZM226.35,176.99c-.06-.1-.92-.24-.98-.18v.96c.4.18,1.36-.14.98-.79Z"/>
    <path class="st2" d="M226.35,176.99c.38.64-.57.97-.98.79v-.96c.06-.07.92.07.98.18Z"/>
  </g>
</svg>